<svg width="21" height="21" viewBox="0 0 21 21" fill="none" xmlns="http://www.w3.org/2000/svg">
<path fill-rule="evenodd" clip-rule="evenodd" d="M0.75 0.583252C0.335786 0.583252 0 0.919038 0 1.33325C0 1.74747 0.335786 2.08325 0.75 2.08325H1.5V12.5833C1.5 14.2401 2.84315 15.5833 4.5 15.5833H5.70943L4.53849 19.0961C4.4075 19.489 4.61987 19.9138 5.01283 20.0448C5.40579 20.1757 5.83053 19.9634 5.96151 19.5704L6.29057 18.5833H14.7094L15.0385 19.5704C15.1695 19.9634 15.5942 20.1757 15.9872 20.0448C16.3801 19.9138 16.5925 19.489 16.4615 19.0961L15.2906 15.5833H16.5C18.1569 15.5833 19.5 14.2401 19.5 12.5833V2.08325H20.25C20.6642 2.08325 21 1.74747 21 1.33325C21 0.919038 20.6642 0.583252 20.25 0.583252H0.75ZM7.29057 15.5833H13.7094L14.2094 17.0833H6.79057L7.29057 15.5833ZM15.3755 6.58793C15.7341 6.38052 15.8566 5.92172 15.6492 5.56318C15.4418 5.20463 14.983 5.08211 14.6245 5.28952C13.2577 6.08013 12.0517 7.11696 11.0667 8.33939L9.53033 6.803C9.23744 6.51011 8.76256 6.51011 8.46967 6.803L5.46967 9.803C5.17678 10.0959 5.17678 10.5708 5.46967 10.8637C5.76256 11.1566 6.23744 11.1566 6.53033 10.8637L9 8.39399L10.6173 10.0113C10.7742 10.1682 10.9927 10.2476 11.2138 10.228C11.4349 10.2084 11.636 10.0918 11.7629 9.90971C12.707 8.55492 13.9414 7.41753 15.3755 6.58793Z" fill="url(#paint0_linear_8432_13634)"/>
<defs>
<linearGradient id="paint0_linear_8432_13634" x1="1.05" y1="4.23954" x2="19.7388" y2="21.4527" gradientUnits="userSpaceOnUse">
<stop offset="0.185" stop-color="#5164DC"/>
<stop offset="1" stop-color="#F47500"/>
</linearGradient>
</defs>
</svg>
