<svg width="22" height="20" viewBox="0 0 22 20" fill="none" xmlns="http://www.w3.org/2000/svg">
<path fill-rule="evenodd" clip-rule="evenodd" d="M1.25 0.25C0.835786 0.25 0.5 0.585786 0.5 1C0.5 1.41421 0.835786 1.75 1.25 1.75H2V12.25C2 13.9069 3.34315 15.25 5 15.25H6.20943L5.03849 18.7628C4.9075 19.1558 5.11987 19.5805 5.51283 19.7115C5.90579 19.8425 6.33053 19.6301 6.46151 19.2372L6.79057 18.25H15.2094L15.5385 19.2372C15.6695 19.6301 16.0942 19.8425 16.4872 19.7115C16.8801 19.5805 17.0925 19.1558 16.9615 18.7628L15.7906 15.25H17C18.6569 15.25 20 13.9069 20 12.25V1.75H20.75C21.1642 1.75 21.5 1.41421 21.5 1C21.5 0.585786 21.1642 0.25 20.75 0.25H1.25ZM7.79057 15.25H14.2094L14.7094 16.75H7.29057L7.79057 15.25ZM15.8755 6.25467C16.2341 6.04727 16.3566 5.58847 16.1492 5.22992C15.9418 4.87138 15.483 4.74886 15.1245 4.95626C13.7577 5.74688 12.5517 6.78371 11.5667 8.00614L10.0303 6.46975C9.73744 6.17686 9.26256 6.17686 8.96967 6.46975L5.96967 9.46975C5.67678 9.76265 5.67678 10.2375 5.96967 10.5304C6.26256 10.8233 6.73744 10.8233 7.03033 10.5304L9.5 8.06074L11.1173 9.67801C11.2742 9.83498 11.4927 9.91435 11.7138 9.89475C11.9349 9.87515 12.136 9.75859 12.2629 9.57645C13.207 8.22167 14.4414 7.08428 15.8755 6.25467Z" fill="url(#paint0_linear_8445_3335)"/>
<defs>
<linearGradient id="paint0_linear_8445_3335" x1="1.55" y1="3.90629" x2="20.2388" y2="21.1195" gradientUnits="userSpaceOnUse">
<stop stop-color="#00FFA7"/>
<stop offset="0.23" stop-color="#5164DC"/>
<stop offset="0.54" stop-color="#313C86"/>
<stop offset="1" stop-color="#71FFE0" stop-opacity="0.8"/>
</linearGradient>
</defs>
</svg>
