<svg width="20" height="18" viewBox="0 0 20 18" fill="none" xmlns="http://www.w3.org/2000/svg">
<path d="M0.273071 2.62524C1.06638 1.92494 2.10851 1.5 3.24989 1.5H16.7499C17.8913 1.5 18.9334 1.92494 19.7267 2.62524C19.5423 1.14526 18.2798 0 16.7499 0H3.24989C1.71995 0 0.457504 1.14525 0.273071 2.62524Z" fill="url(#paint0_linear_8445_5201)"/>
<path d="M0.273071 5.62524C1.06638 4.92494 2.10851 4.5 3.24989 4.5H16.7499C17.8913 4.5 18.9334 4.92494 19.7267 5.62524C19.5423 4.14526 18.2798 3 16.7499 3H3.24989C1.71995 3 0.457504 4.14525 0.273071 5.62524Z" fill="url(#paint1_linear_8445_5201)"/>
<path d="M3.25 6C1.59315 6 0.25 7.34315 0.25 9V15C0.25 16.6569 1.59315 18 3.25 18H16.75C18.4069 18 19.75 16.6569 19.75 15V9C19.75 7.34315 18.4069 6 16.75 6H13C12.5858 6 12.25 6.33579 12.25 6.75C12.25 7.99264 11.2426 9 10 9C8.75736 9 7.75 7.99264 7.75 6.75C7.75 6.33579 7.41421 6 7 6H3.25Z" fill="url(#paint2_linear_8445_5201)"/>
<defs>
<linearGradient id="paint0_linear_8445_5201" x1="1.225" y1="3.375" x2="18.4842" y2="19.3662" gradientUnits="userSpaceOnUse">
<stop stop-color="#00FFA7"/>
<stop offset="0.23" stop-color="#5164DC"/>
<stop offset="0.54" stop-color="#313C86"/>
<stop offset="1" stop-color="#71FFE0" stop-opacity="0.8"/>
</linearGradient>
<linearGradient id="paint1_linear_8445_5201" x1="1.225" y1="3.375" x2="18.4842" y2="19.3662" gradientUnits="userSpaceOnUse">
<stop stop-color="#00FFA7"/>
<stop offset="0.23" stop-color="#5164DC"/>
<stop offset="0.54" stop-color="#313C86"/>
<stop offset="1" stop-color="#71FFE0" stop-opacity="0.8"/>
</linearGradient>
<linearGradient id="paint2_linear_8445_5201" x1="1.225" y1="3.375" x2="18.4842" y2="19.3662" gradientUnits="userSpaceOnUse">
<stop stop-color="#00FFA7"/>
<stop offset="0.23" stop-color="#5164DC"/>
<stop offset="0.54" stop-color="#313C86"/>
<stop offset="1" stop-color="#71FFE0" stop-opacity="0.8"/>
</linearGradient>
</defs>
</svg>
