<svg width="83" height="16" viewBox="0 0 83 16" fill="none" xmlns="http://www.w3.org/2000/svg">
<path d="M17.6598 9.85223C17.6598 9.84103 17.6579 9.82974 17.656 9.81854V7.68903C17.656 7.68903 17.656 7.68529 17.656 7.68341V6.34569C17.656 5.73594 17.4171 5.16183 16.9863 4.73031L12.913 0.668388C12.0193 -0.222796 10.5669 -0.222796 9.67514 0.668388L5.59996 4.73031C5.16724 5.16371 4.93018 5.73594 4.93018 6.34382V7.68716V7.69279V9.8448C4.93018 9.84668 4.93018 9.84847 4.93018 9.85035C4.93018 9.87849 4.93582 9.90663 4.94334 9.93299C4.94523 9.93666 4.94523 9.94231 4.94711 9.94607C4.96216 9.99115 4.98662 10.0324 5.02048 10.0662L7.18411 12.2218L9.67702 14.7079C10.1078 15.1393 10.6816 15.3776 11.2931 15.3776C11.2931 15.3776 11.2931 15.3776 11.295 15.3776C11.9065 15.3776 12.4822 15.1393 12.913 14.7079L15.4077 12.2218L17.5564 10.0774C17.6184 10.023 17.6598 9.94231 17.6598 9.85223ZM15.0635 11.7022H7.52652L5.97625 10.1562H16.6119L15.0635 11.7022ZM7.53217 7.99298H15.0559L16.6138 9.54645H5.97625L7.53217 7.99298ZM14.4445 7.38322H8.14363L9.44182 6.08866C9.60737 5.92356 9.83128 5.82975 10.0665 5.82975H12.5197C12.7531 5.82975 12.9789 5.92168 13.1444 6.08679L14.4445 7.38322ZM5.54352 6.34569C5.54352 5.89916 5.71849 5.4789 6.03456 5.16183L10.1078 1.09991C10.7626 0.446999 11.8255 0.446999 12.4803 1.09991L16.5517 5.16183C16.8677 5.47703 17.0427 5.89729 17.0427 6.34569V7.38322H15.833C15.4981 7.38322 15.1782 7.25001 14.9412 7.01549L13.4474 5.52768C13.2498 5.33068 12.9826 5.21999 12.7023 5.21999H9.88389C9.60549 5.21999 9.33644 5.33068 9.1389 5.52768L7.64694 7.01549C7.40987 7.25189 7.09003 7.38322 6.75515 7.38322H5.54164V6.34569H5.54352ZM12.4803 14.2763C12.1623 14.5915 11.7428 14.7659 11.295 14.7659C10.8472 14.7659 10.4277 14.5915 10.1116 14.2763L8.13987 12.3119H14.452L12.4803 14.2763Z" fill="#252982"/>
<path d="M17.6598 9.85223C17.6598 9.84103 17.6579 9.82974 17.656 9.81854V7.68903C17.656 7.68903 17.656 7.68529 17.656 7.68341V6.34569C17.656 5.73594 17.4171 5.16183 16.9863 4.73031L12.913 0.668388C12.0193 -0.222796 10.5669 -0.222796 9.67514 0.668388L5.59996 4.73031C5.16724 5.16371 4.93018 5.73594 4.93018 6.34382V7.68716V7.69279V9.8448C4.93018 9.84668 4.93018 9.84847 4.93018 9.85035C4.93018 9.87849 4.93582 9.90663 4.94334 9.93299C4.94523 9.93666 4.94523 9.94231 4.94711 9.94607C4.96216 9.99115 4.98662 10.0324 5.02048 10.0662L7.18411 12.2218L9.67702 14.7079C10.1078 15.1393 10.6816 15.3776 11.2931 15.3776C11.2931 15.3776 11.2931 15.3776 11.295 15.3776C11.9065 15.3776 12.4822 15.1393 12.913 14.7079L15.4077 12.2218L17.5564 10.0774C17.6184 10.023 17.6598 9.94231 17.6598 9.85223ZM15.0635 11.7022H7.52652L5.97625 10.1562H16.6119L15.0635 11.7022ZM7.53217 7.99298H15.0559L16.6138 9.54645H5.97625L7.53217 7.99298ZM14.4445 7.38322H8.14363L9.44182 6.08866C9.60737 5.92356 9.83128 5.82975 10.0665 5.82975H12.5197C12.7531 5.82975 12.9789 5.92168 13.1444 6.08679L14.4445 7.38322ZM5.54352 6.34569C5.54352 5.89916 5.71849 5.4789 6.03456 5.16183L10.1078 1.09991C10.7626 0.446999 11.8255 0.446999 12.4803 1.09991L16.5517 5.16183C16.8677 5.47703 17.0427 5.89729 17.0427 6.34569V7.38322H15.833C15.4981 7.38322 15.1782 7.25001 14.9412 7.01549L13.4474 5.52768C13.2498 5.33068 12.9826 5.21999 12.7023 5.21999H9.88389C9.60549 5.21999 9.33644 5.33068 9.1389 5.52768L7.64694 7.01549C7.40987 7.25189 7.09003 7.38322 6.75515 7.38322H5.54164V6.34569H5.54352ZM12.4803 14.2763C12.1623 14.5915 11.7428 14.7659 11.295 14.7659C10.8472 14.7659 10.4277 14.5915 10.1116 14.2763L8.13987 12.3119H14.452L12.4803 14.2763Z" fill="#252982"/>
<path d="M9.92124 4.61056H12.6625C12.8732 4.61056 13.0388 4.41543 12.9899 4.21093C12.8092 3.44357 12.1169 2.87134 11.2909 2.87134C10.465 2.87134 9.77451 3.44357 9.59202 4.21093C9.54684 4.41543 9.71051 4.61056 9.92124 4.61056Z" fill="#FF6243"/>
<path d="M17.6598 9.85223C17.6598 9.84103 17.6579 9.82974 17.656 9.81854V7.68903C17.656 7.68903 17.656 7.68529 17.656 7.68341V6.34569C17.656 5.73594 17.4171 5.16183 16.9863 4.73031L12.913 0.668388C12.0193 -0.222796 10.5669 -0.222796 9.67514 0.668388L5.59996 4.73031C5.16724 5.16371 4.93018 5.73594 4.93018 6.34382V7.68716V7.69279V9.8448C4.93018 9.84668 4.93018 9.84847 4.93018 9.85035C4.93018 9.87849 4.93582 9.90663 4.94334 9.93299C4.94523 9.93666 4.94523 9.94231 4.94711 9.94607C4.96216 9.99106 4.98662 10.0324 5.02048 10.0662L7.18411 12.2218L9.67702 14.7079C10.1078 15.1393 10.6816 15.3776 11.2931 15.3776C11.2931 15.3776 11.2931 15.3776 11.295 15.3776C11.9065 15.3776 12.4822 15.1393 12.913 14.7079L15.4077 12.2218L17.5564 10.0774C17.6184 10.023 17.6598 9.94231 17.6598 9.85223ZM15.0635 11.7022H7.52652L5.97625 10.1562H16.6119L15.0635 11.7022ZM7.53217 7.99298H15.0559L16.6138 9.54645H5.97625L7.53217 7.99298ZM14.4445 7.38322H8.14363L9.44182 6.08866C9.60737 5.92356 9.83128 5.82975 10.0665 5.82975H12.5197C12.7531 5.82975 12.9789 5.92168 13.1444 6.08679L14.4445 7.38322ZM5.54352 6.34569C5.54352 5.89916 5.71849 5.4789 6.03456 5.16183L10.1078 1.09991C10.7626 0.446999 11.8255 0.446999 12.4803 1.09991L16.5517 5.16183C16.8677 5.47703 17.0427 5.89729 17.0427 6.34569V7.38322H15.833C15.4981 7.38322 15.1782 7.25001 14.9412 7.01549L13.4474 5.52768C13.2498 5.33068 12.9826 5.21999 12.7023 5.21999H9.88389C9.60549 5.21999 9.33644 5.33068 9.1389 5.52768L7.64694 7.01549C7.40987 7.25189 7.09003 7.38322 6.75515 7.38322H5.54164V6.34569H5.54352ZM12.4803 14.2763C12.1623 14.5915 11.7428 14.7659 11.295 14.7659C10.8472 14.7659 10.4277 14.5915 10.1116 14.2763L8.13987 12.3119H14.452L12.4803 14.2763Z" fill="#252982"/>
<path d="M27.9959 3.96113C28.5687 4.22022 29.007 4.5889 29.3159 5.06223C29.6247 5.54054 29.779 6.10355 29.779 6.75624C29.779 7.39897 29.6247 7.96197 29.3159 8.44027C29.007 8.91858 28.5637 9.28728 27.9959 9.54134C27.4231 9.79545 26.7506 9.92505 25.9736 9.92505H24.2053V12.3464H22.1731V3.57251H25.9686C26.7456 3.57251 27.4231 3.70205 27.9959 3.96113ZM27.2487 7.87727C27.5675 7.61321 27.7269 7.23952 27.7269 6.75624C27.7269 6.26298 27.5675 5.88432 27.2487 5.62026C26.9299 5.35619 26.4666 5.22665 25.859 5.22665H24.2053V8.27087H25.859C26.4666 8.27087 26.9299 8.14134 27.2487 7.87727Z" fill="#252982"/>
<path d="M31.0842 3.57251H33.1165V12.3464H31.0842V3.57251Z" fill="#252982"/>
<path d="M41.858 10.7172V12.3464H35.064V3.57251H41.6937V5.20174H37.0813V7.105H41.1557V8.68442H37.0813V10.7172H41.858Z" fill="#252982"/>
<path d="M49.0158 12.3464L47.3223 9.90011H47.2227H45.4544V12.3464H43.4221V3.57251H47.2177C47.9947 3.57251 48.6672 3.70205 49.24 3.96113C49.8128 4.22022 50.2511 4.5889 50.56 5.06223C50.8688 5.54054 51.0232 6.10355 51.0232 6.75624C51.0232 7.40892 50.8688 7.97194 50.555 8.44027C50.2411 8.9136 49.7978 9.27233 49.22 9.52647L51.1876 12.3464H49.0158ZM48.5028 5.62026C48.184 5.35619 47.7208 5.22665 47.1131 5.22665H45.4594V8.28583H47.1131C47.7208 8.28583 48.184 8.15129 48.5028 7.88225C48.8216 7.61321 48.981 7.23952 48.981 6.75624C48.976 6.26298 48.8166 5.88432 48.5028 5.62026Z" fill="#252982"/>
<path d="M54.3804 4.37466H51.2971V3.57251H58.3901V4.37466H55.3068V12.3464H54.3804V4.37466Z" fill="#252982"/>
<path d="M72.2175 3.57251L69.2587 12.3464H68.2824L65.7123 4.86294L63.1321 12.3464H62.1657L59.207 3.57251H60.1584L62.6887 11.1208L65.3088 3.57251H66.1755L68.7556 11.1556L71.3258 3.57251H72.2175Z" fill="#252982"/>
<path d="M75.0119 11.8381C74.3046 11.4495 73.7566 10.9164 73.3582 10.2388C72.9597 9.56116 72.7605 8.80388 72.7605 7.95687C72.7605 7.11485 72.9597 6.35255 73.3582 5.67494C73.7566 4.99734 74.3046 4.46423 75.0119 4.07561C75.7192 3.68698 76.5062 3.49268 77.3729 3.49268C78.2396 3.49268 79.0266 3.68698 79.724 4.07062C80.4213 4.45427 80.9692 4.98739 81.3726 5.66997C81.7761 6.35255 81.9754 7.11485 81.9754 7.95687C81.9754 8.79889 81.7761 9.56116 81.3726 10.2438C80.9741 10.9263 80.4213 11.4595 79.724 11.8431C79.0266 12.2268 78.2445 12.4211 77.3729 12.4211C76.5062 12.4211 75.7192 12.2268 75.0119 11.8381ZM79.2557 11.1207C79.8136 10.8068 80.252 10.3733 80.5708 9.81527C80.8895 9.25727 81.0489 8.63945 81.0489 7.95189C81.0489 7.26432 80.8895 6.64651 80.5708 6.08849C80.252 5.53045 79.8136 5.097 79.2557 4.7831C78.6978 4.46922 78.0702 4.31477 77.3779 4.31477C76.6855 4.31477 76.0579 4.46922 75.4901 4.7831C74.9272 5.097 74.4839 5.53045 74.1601 6.08849C73.8364 6.64651 73.677 7.26432 73.677 7.95189C73.677 8.63945 73.8364 9.25727 74.1601 9.81527C74.4839 10.3733 74.9223 10.8068 75.4901 11.1207C76.0529 11.4346 76.6806 11.589 77.3779 11.589C78.0652 11.594 78.6929 11.4346 79.2557 11.1207Z" fill="#252982"/>
</svg>
