<svg viewBox="0 0 320 53" fill="none" xmlns="http://www.w3.org/2000/svg">
    <g clip-path="url(#clip0_4281_22888)">
        <path
            d="M44.9688 19.2992L27.9487 2.279C26.5291 0.859458 24.6732 0.15448 22.8172 0.15448C20.9612 0.15448 19.1053 0.859458 17.6857 2.279L0.665556 19.2992C0.310669 19.6541 0.147613 20.1288 0.166796 20.5892C0.181184 20.8722 0.176388 28.1857 0.166796 32.4492C0.166796 32.4731 0.166796 32.5019 0.166796 32.5259V32.593H0.171592C0.195571 32.9959 0.353831 33.3891 0.66076 33.6961L17.6809 50.7162C19.0957 52.1358 20.9517 52.8408 22.8124 52.8408C24.6732 52.8408 26.5243 52.1358 27.9391 50.7162L44.9593 33.6961C45.2902 33.3652 45.458 32.9287 45.458 32.4923V20.5029C45.458 20.0665 45.295 19.6301 44.9593 19.2992H44.9688ZM25.2678 47.8819C24.6636 48.4862 23.8723 48.8891 23.0186 48.937C22.0451 48.9898 21.1291 48.6397 20.4481 47.9635L16.2758 43.7912H29.3586L25.263 47.8867L25.2678 47.8819ZM33.2624 39.8874H12.372L6.92883 34.449H38.7008L33.2576 39.8874H33.2624ZM6.92883 30.5453L12.2042 25.2699H33.4302L38.7056 30.5453H6.92883ZM34.5093 21.371H4.11371L20.4481 5.03657C21.1291 4.35557 22.0451 4.00548 23.0138 4.06303C23.8723 4.11099 24.6732 4.52822 25.2822 5.13728L41.5111 21.3662H34.5045L34.5093 21.371Z"
            fill="#5164DC" />
        <path
            d="M18.3042 14.1102C18.3042 16.604 20.3232 18.623 22.817 18.623C25.3108 18.623 27.3298 16.604 27.3298 14.1102C27.3298 11.6164 25.3108 9.59735 22.817 9.59735C20.3232 9.59735 18.3042 11.6164 18.3042 14.1102Z"
            fill="#5164DC" />
        <path
            d="M66.7751 4.75842H85.4978C93.689 4.75842 98.9835 10.3359 98.9835 18.0715C98.9835 25.0685 93.689 31.4421 85.4978 31.4421H76.6784V45.7814H66.7751V4.75842ZM88.8549 18.0715C88.8549 15.5105 87.0325 13.4627 83.733 13.4627H76.6784V22.7378H83.733C87.0325 22.7378 88.8549 20.6324 88.8549 18.0715Z"
            fill="#5164DC" />
        <path d="M101.482 4.75842H111.385V45.7814H101.482V4.75842Z" fill="#5164DC" />
        <path
            d="M116.33 4.75842H144.893V13.4052H126.228V19.8363H140.966V28.4831H126.228V37.1298H145.517V45.7766H116.325V4.75842H116.33Z"
            fill="#5164DC" />
        <path
            d="M148.135 4.75842H166.858C175.049 4.75842 180.401 9.7652 180.401 17.5631C180.401 21.6012 178.181 25.7015 174.824 27.9747C177.212 29.3415 178.579 31.4469 179.26 34.4634L180.627 40.554C181.082 42.5443 181.821 44.7072 182.449 45.791H171.524C171.069 44.9949 170.555 43.4603 170.33 42.0359L169.419 36.3433C168.738 32.1327 166.345 30.3103 161.338 30.3103H158.039V45.7862H148.135V4.75842ZM170.268 17.5631C170.268 14.9446 168.388 13.4675 165.146 13.4675H158.034V21.6635H165.146C168.388 21.6635 170.268 20.1289 170.268 17.5679V17.5631Z"
            fill="#5164DC" />
        <path
            d="M199.287 13.4052H187.341V4.75842H221.141V13.4052H209.195V45.7814H199.292V13.4052H199.287Z"
            fill="#5164DC" />
        <path
            d="M262.956 24.1045L267.109 4.75842H277.52L266.255 45.7814H255.047L250.381 26.8909C249.072 21.4861 248.276 17.1027 248.276 17.1027C248.276 17.1027 247.307 21.4861 245.94 26.8909L241.164 45.7814H230.181L218.801 4.75842H229.553L233.821 24.1045C235.016 29.5094 235.697 33.9503 235.697 33.9503C235.697 33.9503 236.493 29.5142 237.687 24.1045L241.955 4.75842H254.76L259.028 24.1045C260.222 29.5094 260.961 33.9503 260.961 33.9503C260.961 33.9503 261.814 29.5142 262.951 24.1045H262.956Z"
            fill="#5164DC" />
        <path
            d="M276.719 25.2412C276.719 13.2374 285.764 4.30286 298.056 4.30286C310.347 4.30286 319.167 13.1798 319.167 25.2412C319.167 37.3025 310.175 46.237 298.056 46.237C285.937 46.237 276.719 37.3025 276.719 25.2412ZM309.038 25.2412C309.038 18.2442 304.429 12.9496 297.998 12.9496C291.567 12.9496 286.848 18.2394 286.848 25.2412C286.848 32.243 291.457 37.5903 297.998 37.5903C304.54 37.5903 309.038 32.3005 309.038 25.2412Z"
            fill="#5164DC" />
    </g>
    <defs>
        <clipPath id="clip0_4281_22888">
            <rect width="319" height="52.6911" fill="white" transform="translate(0.166748 0.15448)" />
        </clipPath>
    </defs>
</svg>