<svg width="120" height="120" viewBox="0 0 120 120" fill="none" xmlns="http://www.w3.org/2000/svg">
<path fill-rule="evenodd" clip-rule="evenodd" d="M58.5435 96.4152C59.182 96.8039 59.984 96.8041 60.6226 96.4157L96.288 74.7276C98.1309 73.6069 100.198 75.7949 98.9741 77.5711L71.9017 116.865C70.9876 118.192 71.9374 120 73.5487 120H118C119.105 120 120 119.105 120 118V2C120 0.895431 119.105 0 118 0H72.6742C71.1299 0 70.1683 1.67583 70.9475 3.00914L103.94 59.4636C104.491 60.4052 104.185 61.6141 103.254 62.1812L61.3055 87.714C60.6666 88.1029 59.8639 88.1028 59.2251 87.7136L17.2762 62.1567C16.3449 61.5893 16.0398 60.3805 16.5903 59.4391L49.5884 3.00959C50.3681 1.67628 49.4065 0 47.8619 0H2C0.895431 0 0 0.895429 0 2V118C0 119.105 0.895429 120 2 120H45.6349C47.2458 120 48.1957 118.193 47.2824 116.866L20.2373 77.5742C19.0143 75.7974 21.0823 73.6103 22.9247 74.7319L58.5435 96.4152Z" fill="url(#paint0_linear_8351_19597)"/>
<defs>
<linearGradient id="paint0_linear_8351_19597" x1="6" y1="22.5" x2="120" y2="120" gradientUnits="userSpaceOnUse">
<stop stop-color="#00FFA7"/>
<stop offset="0.23" stop-color="#5164DC"/>
<stop offset="0.54" stop-color="#313C86"/>
<stop offset="1" stop-color="#71FFE0" stop-opacity="0.8"/>
</linearGradient>
</defs>
</svg>
