<svg width="97" height="16" viewBox="0 0 97 16" fill="none" xmlns="http://www.w3.org/2000/svg">
<g style="mix-blend-mode:luminosity">
<path d="M96.1835 0H80.2871V16H96.1835V0Z" fill="#FFFF00"/>
<path d="M32.6196 0H16.7231V16H32.6196V0Z" fill="#00FFA7"/>
<path d="M48.5034 0H32.6069V16H48.5034V0Z" fill="#71FFE0"/>
<path d="M80.2995 0H64.4031V16H80.2995V0Z" fill="#D8FF00"/>
<path d="M16.7199 0H0.823486V16H16.7199V0Z" fill="#00FFD3"/>
<path d="M64.3999 0H48.5034V16H64.3999V0Z" fill="#5BFFA7"/>
<path d="M4.31761 3.41797H7.55712V9.96418H13.2218V12.4635H4.31348L4.31761 3.41797Z" fill="black"/>
<path d="M26.785 10.693H22.5709L21.8746 12.4124H18.395L22.5709 3.3689H26.7757L30.9516 12.4124H27.4803L26.785 10.693ZM25.9997 8.72896L25.3676 7.16687C25.0003 6.31396 24.7985 5.80368 24.6971 5.21841H24.6588C24.545 5.80368 24.3422 6.31396 23.9884 7.16687L23.3552 8.72896H25.9997Z" fill="black"/>
<path d="M45.9583 9.78806C45.9583 11.0617 45.0726 12.4124 42.4663 12.4124H35.1565V3.3689H42.4198C44.6722 3.3689 45.7472 4.26137 45.7472 5.62352C45.7472 6.54099 45.1657 7.34286 43.8745 7.6105C45.2496 7.81462 45.9583 8.579 45.9583 9.78806ZM38.3919 5.38191V6.89714H41.4286C42.1746 6.89714 42.3598 6.48059 42.3598 6.09527C42.3598 5.70996 42.1528 5.38191 41.4286 5.38191H38.3919ZM42.5801 9.52146C42.5801 9.04971 42.2253 8.70605 41.5548 8.70605H38.3919V10.3952H41.5548C42.276 10.3952 42.5801 9.96718 42.5801 9.52146Z" fill="black"/>
<path d="M56.2809 9.23833H54.4009V12.1938H51.1562V3.15137H57.4449C60.5489 3.15137 61.4438 4.6541 61.4438 6.1183C61.4438 7.13783 60.9751 8.2969 59.5711 8.85717L61.7439 12.1896H58.1753L56.2809 9.23833ZM54.4009 7.28987H56.6772C57.7118 7.28987 58.0315 6.80667 58.0315 6.23286C58.0315 5.68509 57.7025 5.22687 56.6865 5.22687H54.4009V7.28987Z" fill="black"/>
<path d="M70.732 9.21333L66.3657 3.15137H69.9601L72.0605 6.44947C72.3005 6.78063 72.3512 6.89518 72.3895 6.99724H72.4143C72.4526 6.8931 72.5033 6.78063 72.7433 6.44947L74.9585 3.15137H78.3367L73.9715 9.21333V12.1938H70.732V9.21333Z" fill="black"/>
<path d="M82.6677 10.64L84.7557 8.80611C85.8203 9.73323 87.1762 10.2518 88.5839 10.2703C89.9289 10.2703 90.558 10.0162 90.558 9.54134C90.558 9.19768 90.3304 9.07063 89.571 8.98107L86.8891 8.6624C84.6129 8.38226 83.4975 7.54186 83.4975 5.78398C83.4975 3.95008 85.3196 2.84204 88.5084 2.84204C90.4825 2.84204 92.3552 3.2586 93.722 4.21772L91.9372 6.12765C91.1912 5.47886 89.812 5.0196 88.3314 5.0196C87.2554 5.0196 86.6863 5.23621 86.6863 5.64444C86.6863 6.00059 86.9522 6.14118 87.8503 6.2422L90.1659 6.47235C92.7598 6.73894 93.7975 7.49083 93.7975 9.22267C93.7975 11.3242 91.7727 12.4958 88.3945 12.4958C86.0076 12.4989 83.7562 11.6845 82.6677 10.64Z" fill="black"/>
</g>
</svg>
