<svg viewBox="0 0 320 53" fill="none" xmlns="http://www.w3.org/2000/svg">
    <g clip-path="url(#clip0_4281_23107)">
        <path
            d="M45.4686 19.2992L28.4484 2.279C27.0289 0.859458 25.1729 0.15448 23.317 0.15448C21.461 0.15448 19.605 0.859458 18.1855 2.279L1.16531 19.2992C0.810425 19.6541 0.647369 20.1288 0.666552 20.5892C0.680939 20.8722 0.676144 28.1857 0.666552 32.4492C0.666552 32.4731 0.666552 32.5019 0.666552 32.5259V32.593H0.671348C0.695327 32.9959 0.853587 33.3891 1.16052 33.6961L18.1807 50.7162C19.5954 52.1358 21.4514 52.8408 23.3122 52.8408C25.1729 52.8408 27.0241 52.1358 28.4388 50.7162L45.459 33.6961C45.7899 33.3652 45.9578 32.9287 45.9578 32.4923V20.5029C45.9578 20.0665 45.7947 19.6301 45.459 19.2992H45.4686ZM25.7676 47.8819C25.1633 48.4862 24.372 48.8891 23.5184 48.937C22.5448 48.9898 21.6288 48.6397 20.9478 47.9635L16.7755 43.7912H29.8584L25.7628 47.8867L25.7676 47.8819ZM33.7621 39.8874H12.8718L7.42858 34.449H39.2005L33.7573 39.8874H33.7621ZM7.42858 30.5453L12.7039 25.2699H33.93L39.2053 30.5453H7.42858ZM35.009 21.371H4.61347L20.9478 5.03657C21.6288 4.35557 22.5448 4.00548 23.5136 4.06303C24.372 4.11099 25.1729 4.52822 25.782 5.13728L42.0109 21.3662H35.0042L35.009 21.371Z"
            fill="white" />
        <path
            d="M18.804 14.1102C18.804 16.604 20.823 18.623 23.3168 18.623C25.8106 18.623 27.8296 16.604 27.8296 14.1102C27.8296 11.6164 25.8106 9.59735 23.3168 9.59735C20.823 9.59735 18.804 11.6164 18.804 14.1102Z"
            fill="white" />
        <path
            d="M67.2749 4.75842H85.9976C94.1887 4.75842 99.4833 10.3359 99.4833 18.0715C99.4833 25.0685 94.1887 31.4421 85.9976 31.4421H77.1782V45.7814H67.2749V4.75842ZM89.3546 18.0715C89.3546 15.5105 87.5322 13.4627 84.2327 13.4627H77.1782V22.7378H84.2327C87.5322 22.7378 89.3546 20.6324 89.3546 18.0715Z"
            fill="white" />
        <path d="M101.982 4.75842H111.885V45.7814H101.982V4.75842Z" fill="white" />
        <path
            d="M116.83 4.75842H145.393V13.4052H126.728V19.8363H141.465V28.4831H126.728V37.1298H146.017V45.7766H116.825V4.75842H116.83Z"
            fill="white" />
        <path
            d="M148.635 4.75842H167.358C175.549 4.75842 180.901 9.7652 180.901 17.5631C180.901 21.6012 178.681 25.7015 175.324 27.9747C177.712 29.3415 179.079 31.4469 179.76 34.4634L181.127 40.554C181.582 42.5443 182.321 44.7072 182.949 45.791H172.024C171.569 44.9949 171.055 43.4603 170.83 42.0359L169.919 36.3433C169.238 32.1327 166.845 30.3103 161.838 30.3103H158.539V45.7862H148.635V4.75842ZM170.768 17.5631C170.768 14.9446 168.888 13.4675 165.646 13.4675H158.534V21.6635H165.646C168.888 21.6635 170.768 20.1289 170.768 17.5679V17.5631Z"
            fill="white" />
        <path
            d="M199.787 13.4052H187.84V4.75842H221.641V13.4052H209.695V45.7814H199.791V13.4052H199.787Z"
            fill="white" />
        <path
            d="M263.455 24.1045L267.609 4.75842H278.02L266.755 45.7814H255.547L250.881 26.8909C249.572 21.4861 248.776 17.1027 248.776 17.1027C248.776 17.1027 247.807 21.4861 246.44 26.8909L241.663 45.7814H230.681L219.301 4.75842H230.053L234.321 24.1045C235.515 29.5094 236.196 33.9503 236.196 33.9503C236.196 33.9503 236.992 29.5142 238.186 24.1045L242.455 4.75842H255.259L259.528 24.1045C260.722 29.5094 261.46 33.9503 261.46 33.9503C261.46 33.9503 262.314 29.5142 263.451 24.1045H263.455Z"
            fill="white" />
        <path
            d="M277.219 25.2412C277.219 13.2374 286.264 4.30286 298.556 4.30286C310.847 4.30286 319.667 13.1798 319.667 25.2412C319.667 37.3025 310.675 46.237 298.556 46.237C286.437 46.237 277.219 37.3025 277.219 25.2412ZM309.538 25.2412C309.538 18.2442 304.929 12.9496 298.498 12.9496C292.067 12.9496 287.348 18.2394 287.348 25.2412C287.348 32.243 291.957 37.5903 298.498 37.5903C305.04 37.5903 309.538 32.3005 309.538 25.2412Z"
            fill="white" />
    </g>
    <defs>
        <clipPath id="clip0_4281_23107">
            <rect width="319" height="52.6911" fill="white" transform="translate(0.666504 0.15448)" />
        </clipPath>
    </defs>
</svg>