<svg width="83" height="16" viewBox="0 0 83 16" fill="none" xmlns="http://www.w3.org/2000/svg">
<g style="mix-blend-mode:luminosity" clip-path="url(#clip0_8047_16269)">
<path d="M14.6858 9.93972C14.6858 9.92807 14.6838 9.91632 14.6818 9.90466V7.68896C14.6818 7.68896 14.6818 7.68507 14.6818 7.68311V6.29125C14.6818 5.65682 14.4332 5.05947 13.985 4.61048L9.74681 0.384161C8.817 -0.543093 7.30579 -0.543093 6.37793 0.384161L2.13782 4.61048C1.68758 5.06143 1.44092 5.65682 1.44092 6.28931V7.68702V7.69287V9.93198C1.44092 9.93394 1.44092 9.9358 1.44092 9.93776C1.44092 9.96704 1.44679 9.99632 1.45462 10.0237C1.45658 10.0276 1.45658 10.0334 1.45854 10.0374C1.47419 10.0843 1.49964 10.1272 1.53488 10.1623L3.78607 12.4052L6.37989 14.9919C6.8281 15.4408 7.42516 15.6887 8.06139 15.6887C8.06139 15.6887 8.06139 15.6887 8.06335 15.6887C8.69958 15.6887 9.2986 15.4408 9.74681 14.9919L12.3426 12.4052L14.5781 10.174C14.6427 10.1174 14.6858 10.0334 14.6858 9.93972ZM11.9843 11.8646H4.14235L2.52933 10.256H13.5954L11.9843 11.8646ZM4.14823 8.00521H11.9765L13.5974 9.62156H2.52933L4.14823 8.00521ZM11.3403 7.37077H4.78443L6.13517 6.02382C6.30742 5.85203 6.54039 5.75443 6.78511 5.75443H9.33767C9.58044 5.75443 9.81536 5.85008 9.98762 6.02187L11.3403 7.37077ZM2.07909 6.29125C2.07909 5.82665 2.26114 5.38938 2.59 5.05947L6.8281 0.833145C7.50938 0.153812 8.61536 0.153812 9.29664 0.833145L13.5328 5.05947C13.8616 5.38743 14.0437 5.8247 14.0437 6.29125V7.37077H12.785C12.4366 7.37077 12.1037 7.23218 11.8571 6.98816L10.3028 5.44013C10.0973 5.23516 9.81928 5.11999 9.52765 5.11999H6.59513C6.30546 5.11999 6.02553 5.23516 5.81999 5.44013L4.26764 6.98816C4.02098 7.23412 3.6882 7.37077 3.33975 7.37077H2.07713V6.29125H2.07909ZM9.29664 14.5429C8.96575 14.8708 8.52929 15.0523 8.06335 15.0523C7.59741 15.0523 7.16095 14.8708 6.83202 14.5429L4.78052 12.4989H11.3481L9.29664 14.5429Z" fill="white"/>
<path d="M14.6858 9.93972C14.6858 9.92807 14.6838 9.91632 14.6818 9.90466V7.68896C14.6818 7.68896 14.6818 7.68507 14.6818 7.68311V6.29125C14.6818 5.65682 14.4332 5.05947 13.985 4.61048L9.74681 0.384161C8.817 -0.543093 7.30579 -0.543093 6.37793 0.384161L2.13782 4.61048C1.68758 5.06143 1.44092 5.65682 1.44092 6.28931V7.68702V7.69287V9.93198C1.44092 9.93394 1.44092 9.9358 1.44092 9.93776C1.44092 9.96704 1.44679 9.99632 1.45462 10.0237C1.45658 10.0276 1.45658 10.0334 1.45854 10.0374C1.47419 10.0843 1.49964 10.1272 1.53488 10.1623L3.78607 12.4052L6.37989 14.9919C6.8281 15.4408 7.42516 15.6887 8.06139 15.6887C8.06139 15.6887 8.06139 15.6887 8.06335 15.6887C8.69958 15.6887 9.2986 15.4408 9.74681 14.9919L12.3426 12.4052L14.5781 10.174C14.6427 10.1174 14.6858 10.0334 14.6858 9.93972ZM11.9843 11.8646H4.14235L2.52933 10.256H13.5954L11.9843 11.8646ZM4.14823 8.00521H11.9765L13.5974 9.62156H2.52933L4.14823 8.00521ZM11.3403 7.37077H4.78443L6.13517 6.02382C6.30742 5.85203 6.54039 5.75443 6.78511 5.75443H9.33767C9.58044 5.75443 9.81536 5.85008 9.98762 6.02187L11.3403 7.37077ZM2.07909 6.29125C2.07909 5.82665 2.26114 5.38938 2.59 5.05947L6.8281 0.833145C7.50938 0.153812 8.61536 0.153812 9.29664 0.833145L13.5328 5.05947C13.8616 5.38743 14.0437 5.8247 14.0437 6.29125V7.37077H12.785C12.4366 7.37077 12.1037 7.23218 11.8571 6.98816L10.3028 5.44013C10.0973 5.23516 9.81928 5.11999 9.52765 5.11999H6.59513C6.30546 5.11999 6.02553 5.23516 5.81999 5.44013L4.26764 6.98816C4.02098 7.23412 3.6882 7.37077 3.33975 7.37077H2.07713V6.29125H2.07909ZM9.29664 14.5429C8.96575 14.8708 8.52929 15.0523 8.06335 15.0523C7.59741 15.0523 7.16095 14.8708 6.83202 14.5429L4.78052 12.4989H11.3481L9.29664 14.5429Z" fill="white"/>
<path d="M6.63385 4.48588H9.48607C9.70533 4.48588 9.87758 4.28286 9.82666 4.07008C9.63874 3.27167 8.91839 2.67627 8.05898 2.67627C7.19957 2.67627 6.48118 3.27167 6.2913 4.07008C6.2443 4.28286 6.41459 4.48588 6.63385 4.48588Z" fill="#FF6243"/>
<path d="M14.6858 9.93972C14.6858 9.92807 14.6838 9.91632 14.6818 9.90466V7.68896C14.6818 7.68896 14.6818 7.68507 14.6818 7.68311V6.29125C14.6818 5.65682 14.4332 5.05947 13.985 4.61048L9.74681 0.384161C8.817 -0.543093 7.30579 -0.543093 6.37793 0.384161L2.13782 4.61048C1.68758 5.06143 1.44092 5.65682 1.44092 6.28931V7.68702V7.69287V9.93198C1.44092 9.93394 1.44092 9.9358 1.44092 9.93776C1.44092 9.96704 1.44679 9.99632 1.45462 10.0237C1.45658 10.0276 1.45658 10.0334 1.45854 10.0374C1.47419 10.0842 1.49964 10.1272 1.53488 10.1623L3.78607 12.4052L6.37989 14.9919C6.8281 15.4408 7.42516 15.6887 8.06139 15.6887C8.06139 15.6887 8.06139 15.6887 8.06335 15.6887C8.69958 15.6887 9.2986 15.4408 9.74681 14.9919L12.3426 12.4052L14.5781 10.174C14.6427 10.1174 14.6858 10.0334 14.6858 9.93972ZM11.9843 11.8646H4.14235L2.52933 10.256H13.5954L11.9843 11.8646ZM4.14823 8.00521H11.9765L13.5974 9.62156H2.52933L4.14823 8.00521ZM11.3403 7.37077H4.78443L6.13517 6.02382C6.30742 5.85203 6.54039 5.75443 6.78511 5.75443H9.33767C9.58044 5.75443 9.81536 5.85008 9.98762 6.02187L11.3403 7.37077ZM2.07909 6.29125C2.07909 5.82665 2.26114 5.38938 2.59 5.05947L6.8281 0.833145C7.50938 0.153812 8.61536 0.153812 9.29664 0.833145L13.5328 5.05947C13.8616 5.38743 14.0437 5.8247 14.0437 6.29125V7.37077H12.785C12.4366 7.37077 12.1037 7.23218 11.8571 6.98816L10.3028 5.44013C10.0973 5.23516 9.81928 5.11999 9.52765 5.11999H6.59513C6.30546 5.11999 6.02553 5.23516 5.81999 5.44013L4.26764 6.98816C4.02098 7.23412 3.6882 7.37077 3.33975 7.37077H2.07713V6.29125H2.07909ZM9.29664 14.5429C8.96575 14.8708 8.52929 15.0523 8.06335 15.0523C7.59741 15.0523 7.16095 14.8708 6.83202 14.5429L4.78052 12.4989H11.3481L9.29664 14.5429Z" fill="white"/>
<path d="M25.44 3.81036C26.036 4.07993 26.4921 4.46354 26.8135 4.95602C27.1348 5.45369 27.2954 6.03949 27.2954 6.71859C27.2954 7.38734 27.1348 7.97313 26.8135 8.47079C26.4921 8.96846 26.0308 9.35208 25.44 9.61642C24.8441 9.88082 24.1444 10.0157 23.3359 10.0157H21.496V12.535H19.3816V3.40601H23.3307C24.1392 3.40601 24.8441 3.54079 25.44 3.81036ZM24.6626 7.885C24.9944 7.61025 25.1602 7.22144 25.1602 6.71859C25.1602 6.20538 24.9944 5.81139 24.6626 5.53663C24.3309 5.26188 23.8489 5.12709 23.2167 5.12709H21.496V8.29453H23.2167C23.8489 8.29453 24.3309 8.15975 24.6626 7.885Z" fill="white"/>
<path d="M28.6533 3.40601H30.7679V12.535H28.6533V3.40601Z" fill="white"/>
<path d="M39.8632 10.8399V12.535H32.7942V3.40601H39.6923V5.10118H34.8932V7.08147H39.1325V8.72481H34.8932V10.8399H39.8632Z" fill="white"/>
<path d="M47.3108 12.535L45.5487 9.98972H45.4451H43.6053V12.535H41.4907V3.40601H45.4399C46.2484 3.40601 46.9481 3.54079 47.5441 3.81036C48.1401 4.07993 48.5961 4.46354 48.9175 4.95602C49.2388 5.45369 49.3994 6.03949 49.3994 6.71859C49.3994 7.3977 49.2388 7.9835 48.9123 8.47079C48.5857 8.96328 48.1245 9.33652 47.5233 9.60095L49.5705 12.535H47.3108ZM46.777 5.53663C46.4453 5.26188 45.9633 5.12709 45.3311 5.12709H43.6105V8.31009H45.3311C45.9633 8.31009 46.4453 8.17012 46.777 7.89018C47.1087 7.61025 47.2746 7.22144 47.2746 6.71859C47.2694 6.20538 47.1035 5.81139 46.777 5.53663Z" fill="white"/>
<path d="M52.8924 4.24063H49.6843V3.40601H57.0644V4.24063H53.8563V12.535H52.8924V4.24063Z" fill="white"/>
<path d="M71.4516 3.40601L68.3731 12.535H67.3573L64.6831 4.74866L61.9985 12.535H60.993L57.9146 3.40601H58.9044L61.5372 11.2598L64.2633 3.40601H65.1651L67.8496 11.2961L70.5238 3.40601H71.4516Z" fill="white"/>
<path d="M74.3591 12.006C73.6232 11.6017 73.0531 11.0469 72.6385 10.3419C72.2239 9.63685 72.0166 8.84892 72.0166 7.96764C72.0166 7.09153 72.2239 6.29838 72.6385 5.59335C73.0531 4.88832 73.6232 4.33363 74.3591 3.92928C75.095 3.52492 75.9139 3.32275 76.8157 3.32275C77.7174 3.32275 78.5363 3.52492 79.2619 3.92409C79.9875 4.32326 80.5575 4.87796 80.9773 5.58817C81.3971 6.29838 81.6044 7.09153 81.6044 7.96764C81.6044 8.84373 81.3971 9.63685 80.9773 10.3471C80.5627 11.0573 79.9875 11.612 79.2619 12.0112C78.5363 12.4103 77.7226 12.6126 76.8157 12.6126C75.9139 12.6126 75.095 12.4103 74.3591 12.006ZM78.7747 11.2595C79.3552 10.9329 79.8113 10.4819 80.143 9.90126C80.4747 9.32067 80.6404 8.67784 80.6404 7.96245C80.6404 7.24705 80.4747 6.60424 80.143 6.02363C79.8113 5.44301 79.3552 4.99201 78.7747 4.66541C78.1942 4.33882 77.5412 4.17812 76.8209 4.17812C76.1004 4.17812 75.4475 4.33882 74.8567 4.66541C74.271 4.99201 73.8097 5.44301 73.4729 6.02363C73.136 6.60424 72.9702 7.24705 72.9702 7.96245C72.9702 8.67784 73.136 9.32067 73.4729 9.90126C73.8097 10.4819 74.2659 10.9329 74.8567 11.2595C75.4423 11.5861 76.0954 11.7468 76.8209 11.7468C77.5361 11.752 78.1891 11.5861 78.7747 11.2595Z" fill="white"/>
</g>
<defs>
<clipPath id="clip0_8047_16269">
<rect width="82.8235" height="16" fill="white"/>
</clipPath>
</defs>
</svg>
